<?xml version="1.0" encoding="UTF-8"?>
<!DOCTYPE svg PUBLIC "-//W3C//DTD SVG 1.1//EN" "http://www.w3.org/Graphics/SVG/1.1/DTD/svg11.dtd">
<!-- Creator: CorelDRAW 2020 (64-Bit Evaluation Version) -->
<svg xmlns="http://www.w3.org/2000/svg" xml:space="preserve" width="600px" height="400px" version="1.1" style="shape-rendering:geometricPrecision; text-rendering:geometricPrecision; image-rendering:optimizeQuality; fill-rule:evenodd; clip-rule:evenodd"
viewBox="0 0 600 400"
 xmlns:xlink="http://www.w3.org/1999/xlink"
 xmlns:xodm="http://www.corel.com/coreldraw/odm/2003">
 <defs>
  <style type="text/css">
   <![CDATA[
    .fil5 {fill:#FEFEFE;fill-rule:nonzero}
    .fil4 {fill:#373435;fill-rule:nonzero}
    .fil2 {fill:#67C6F0;fill-rule:nonzero}
    .fil1 {fill:#7A75B5;fill-rule:nonzero}
    .fil3 {fill:#282829;fill-rule:nonzero}
    .fil0 {fill:#00AFEF;fill-rule:nonzero}
   ]]>
  </style>
 </defs>
 <g id="Layer_x0020_1">
  <metadata id="CorelCorpID_0Corel-Layer"/>
  <g id="_2089452512528">
   <path class="fil0" d="M263.53 89.03c-60.88,0 -110.4,49.53 -110.4,110.41 0,60.88 49.52,110.41 110.4,110.41 60.88,0 110.41,-49.53 110.41,-110.41 0,-60.88 -49.53,-110.41 -110.41,-110.41z"/>
   <path class="fil1" d="M264.2 329.37c-72.7,0 -131.84,-59.14 -131.84,-131.84 0,-72.7 59.14,-131.84 131.84,-131.84l56.21 0 0 12.89 -56.21 0c-65.59,0 -118.95,53.36 -118.95,118.95 0,65.59 53.36,118.95 118.95,118.95 65.59,0 118.95,-53.36 118.95,-118.95l12.89 0c0,72.7 -59.14,131.84 -131.84,131.84z"/>
   <path class="fil1" d="M338.77 261.42c-2.62,-0.83 -5.2,-1.6 -7.75,-2.33 3.88,-7.61 7.04,-15.9 9.34,-24.71 4.26,1.3 8.41,2.73 12.44,4.29 -3.63,8.24 -8.37,15.89 -14.03,22.75zm-23.55 20.68c4.68,-5.1 8.91,-10.88 12.63,-17.22 2.04,0.58 4.12,1.19 6.22,1.83 -5.61,5.88 -11.94,11.05 -18.85,15.39zm-123.99 -17.3c2.35,-0.53 4.71,-1.05 7.05,-1.54 3.94,6.98 8.49,13.31 13.57,18.84 -7.65,-4.8 -14.59,-10.63 -20.62,-17.3zm159.13 -109.73c-3.78,1.48 -7.64,2.76 -11.57,3.92 -2.77,-8.93 -6.43,-17.26 -10.83,-24.8 2.19,-0.48 4.38,-0.99 6.58,-1.51 6.26,6.65 11.61,14.18 15.82,22.39zm-5.72 37.75c-0.44,-9.6 -1.85,-18.87 -4.09,-27.63 4.26,-1.25 8.45,-2.66 12.56,-4.28 4.27,9.9 6.95,20.65 7.71,31.91l-16.18 0zm-36.85 28.03c0.56,-6.9 0.86,-14.06 0.86,-21.41l0 -0.17 29.71 0 0 0.17c0,9.31 -0.95,18.33 -2.71,26.89 -8.83,-2.35 -18.11,-4.18 -27.86,-5.48zm16.93 36.5c-7.08,-1.85 -14.39,-3.35 -21.88,-4.52 1.88,-7.92 3.34,-16.49 4.33,-25.57 9.47,1.28 18.47,3.06 27.01,5.35 -2.3,8.88 -5.5,17.19 -9.46,24.74zm-131.78 -24.52c8.81,-2.17 17.89,-3.7 27.03,-4.84 0.97,8.64 2.38,16.82 4.16,24.41 -7.42,0.94 -14.92,2.15 -22.48,3.61 -3.6,-7.13 -6.55,-14.91 -8.71,-23.18zm-6.21 1.66c2.13,8.09 4.97,15.75 8.44,22.84 -2.86,0.61 -5.72,1.25 -8.59,1.93 -4.91,-6.29 -9.05,-13.2 -12.31,-20.59 4.05,-1.59 8.22,-2.96 12.46,-4.18zm-0.56 -67.89c-2.04,8.34 -3.32,17.13 -3.75,26.22l-16.17 0c0.71,-10.67 3.16,-20.88 7.05,-30.35 4.18,1.51 8.47,2.88 12.87,4.13zm9.23 -31.92c0.99,0.26 2,0.48 3,0.73 -4.31,7.61 -7.88,16 -10.55,24.97 -4.06,-1.15 -8.03,-2.42 -11.89,-3.8 4.12,-8.39 9.41,-16.11 15.66,-22.93 1.27,0.35 2.54,0.7 3.78,1.03zm6.5 -5.03c-1.63,-0.39 -3.25,-0.78 -4.86,-1.21l-0.22 -0.06c4.61,-4.33 9.64,-8.22 15.03,-11.59 -3.59,3.9 -6.92,8.21 -9.95,12.86zm40.6 -25.43c-5.9,7.23 -11.01,17.46 -14.98,29.9 -6.44,-0.75 -12.76,-1.74 -18.93,-2.99 7.44,-10.84 16.62,-19.47 26.94,-25.1 2.29,-0.69 4.61,-1.29 6.97,-1.81zm63.92 61.28c-1.29,-9.49 -3.11,-18.37 -5.39,-26.43 6.72,-0.95 13.5,-2.11 20.33,-3.49 4.6,7.53 8.4,15.97 11.23,25.09 -8.53,2.15 -17.31,3.68 -26.17,4.83zm0.78 6.4c9.17,-1.19 18.28,-2.78 27.14,-5.02 2.1,8.22 3.41,16.92 3.85,25.94l-29.62 0c-0.18,-7.2 -0.64,-14.2 -1.37,-20.92zm-40.44 20.92l0 -17.63c3.57,-0.1 7.19,-0.25 10.87,-0.46 7.64,-0.55 15.39,-1.19 23.13,-2.05 0.71,6.5 1.17,13.24 1.36,20.14l-35.36 0zm0 57.06l0 -25.05c11.94,-0.06 23.26,0.48 33.97,1.65 -1,9.02 -2.49,17.56 -4.38,25.42 -9.59,-1.22 -19.47,-1.89 -29.59,-2.02zm-19.29 -24.47c4.37,-0.24 8.63,-0.39 12.84,-0.48l0 24.95c-9.69,0.09 -19.59,0.68 -29.66,1.76 -1.8,-7.57 -3.24,-15.76 -4.22,-24.4 7.03,-0.75 14.08,-1.32 21.04,-1.83zm-22.61 -25.97l0 -0.17 35.45 0 0 19.21c-4.34,0.1 -8.75,0.25 -13.25,0.5 -7.04,0.51 -14.16,1.09 -21.28,1.85 -0.6,-6.92 -0.92,-14.08 -0.92,-21.39zm-5.14 -26.21c-0.64,6.31 -1.05,12.86 -1.22,19.59l-29.63 0c0.42,-8.52 1.62,-16.75 3.51,-24.57 8.68,2.16 17.78,3.81 27.34,4.98zm0.75 -6.4c-9.24,-1.13 -18.04,-2.73 -26.41,-4.8 2.72,-9.1 6.39,-17.55 10.85,-25.11 6.75,1.45 13.67,2.62 20.76,3.47 -2.21,8.09 -3.97,16.96 -5.2,26.44zm39.84 8.49l0 17.5 -35.36 0c0.17,-6.46 0.59,-12.77 1.22,-18.88 9.53,0.93 19.49,1.41 29.95,1.41 1.38,0 2.79,-0.02 4.19,-0.03zm-3.03 -33.07c1,0 2.02,-0.01 3.03,-0.02l0 26.65c-11.73,0.13 -22.83,-0.32 -33.38,-1.35 1.26,-9.49 3.07,-18.39 5.31,-26.44 8.16,0.77 16.52,1.16 25.04,1.16zm37.22 -2.32c2.29,8 4.15,16.87 5.46,26.35 -7.6,0.85 -15.22,1.47 -22.74,2.02 -3.55,0.2 -7.02,0.33 -10.46,0.43l0 -26.64c9.08,-0.29 18.34,-1.02 27.74,-2.16zm-1.95 -6.26c-8.73,1.03 -17.34,1.69 -25.79,1.97l0 -33.66c2.36,0.08 4.71,0.24 7.03,0.48 7.32,5.45 13.83,16.52 18.76,31.21zm-39.28 -31.21c2.33,-0.24 4.67,-0.4 7.04,-0.48l0 33.81c-8.92,0.09 -17.65,-0.24 -26.17,-0.99 4.98,-15.25 11.63,-26.75 19.13,-32.34zm-64.56 96.98l0 -0.17 29.71 0 0 0.17c0,7.61 0.31,15.01 0.92,22.13 -9.41,1.17 -18.76,2.74 -27.88,4.98 -1.79,-8.63 -2.75,-17.72 -2.75,-27.11zm43.58 58.5c9.5,-0.99 18.86,-1.53 28.02,-1.62l0 40.58c-2.37,-0.08 -4.71,-0.24 -7.04,-0.48 -8.47,-6.32 -15.86,-20.18 -20.98,-38.48zm41.5 38.48c-2.32,0.24 -4.67,0.4 -7.03,0.48l0 -40.57c9.55,0.12 18.89,0.74 27.95,1.87 -5.12,18.17 -12.48,31.93 -20.92,38.22zm28.42 -96.98c0,7.04 -0.3,13.94 -0.86,20.63 -10.92,-1.19 -22.44,-1.74 -34.59,-1.68l0 -19.12 35.44 0 0.01 0.17zm13.01 -82.65c4.94,3.1 9.59,6.62 13.89,10.54 -1.6,0.36 -3.2,0.71 -4.79,1.05 -2.8,-4.16 -5.84,-8.05 -9.1,-11.59zm2.31 12.98c-6.18,1.2 -12.32,2.22 -18.4,3.06 -3.91,-11.86 -8.86,-21.63 -14.56,-28.61 2.35,0.52 4.68,1.12 6.97,1.81 9.88,5.39 18.72,13.54 25.99,23.74zm-151.51 69.67l0 -0.17 16.25 0 -0.01 0.17c0,9.96 1.04,19.61 2.98,28.77 -4.54,1.29 -9.02,2.76 -13.38,4.48 -3.78,-10.38 -5.84,-21.58 -5.84,-33.25zm38.88 62.52c7.01,-1.32 13.95,-2.41 20.82,-3.27 4.18,15.19 9.94,27.6 16.78,35.98 -2.36,-0.52 -4.68,-1.13 -6.97,-1.82 -12.1,-6.59 -22.63,-17.33 -30.63,-30.89zm86.64 30.89c-2.29,0.69 -4.62,1.3 -6.97,1.82 6.77,-8.31 12.49,-20.56 16.66,-35.57 6.91,1.06 13.65,2.41 20.21,4.07 -7.91,12.99 -18.17,23.28 -29.9,29.68zm69.51 -93.41c0,11.67 -2.06,22.87 -5.84,33.25 -4.33,-1.68 -8.79,-3.21 -13.36,-4.59 1.92,-9.13 2.95,-18.74 2.95,-28.66l0 -0.17 16.25 0 0 0.17zm-97.52 -110.41c-60.88,0 -110.4,49.53 -110.4,110.41 0,60.88 49.52,110.41 110.4,110.41 60.88,0 110.41,-49.53 110.41,-110.41 0,-60.88 -49.53,-110.41 -110.41,-110.41z"/>
   <path class="fil1" d="M396.86 63.88l-17.79 1.15 -27.56 -37.31 -7.18 0 13.32 38.69 -26.63 1.71 -3.54 -8.19 -2.49 0 0 24.4 2.49 0 3.54 -8.18 26.63 1.71 -13.32 38.68 7.18 0 27.56 -37.3 17.79 1.14c4.56,0 8.25,-3.69 8.25,-8.25l0 0c0,-4.55 -3.69,-8.25 -8.25,-8.25z"/>
  </g>
  <g id="_2089452509216">
   <path class="fil2" d="M201.37 59.11l-5.27 2.67c-0.36,0.18 -0.8,0.03 -0.98,-0.33l-5.03 -9.92 -12.61 3.45c-0.15,0.04 -0.3,0.03 -0.44,-0.02 -1.09,-0.38 -1.96,-1.21 -2.42,-2.28 -0.01,-0.03 -0.03,-0.05 -0.04,-0.07 -0.37,-0.74 -1.1,-2.29 -2.01,-4.24 -1.45,-3.08 -3.43,-7.3 -5.03,-10.47 -0.19,-0.37 -0.04,-0.81 0.32,-1 0.37,-0.18 0.81,-0.03 0.99,0.33 1.61,3.19 3.6,7.42 5.05,10.51 0.87,1.85 1.56,3.33 1.94,4.09 0.04,0.05 0.08,0.11 0.1,0.18 0.26,0.67 0.75,1.2 1.38,1.48l12.96 -3.54c0.34,-0.09 0.69,0.07 0.85,0.38l4.97 9.8 3.95 -2 -6.11 -12.11 -10 1.2c-0.31,0.03 -0.61,-0.13 -0.74,-0.41l-0.5 -1c-1.18,-2.4 -2.2,-4.47 -3.31,-6.52 -0.19,-0.36 -0.06,-0.81 0.3,-1 0.35,-0.21 0.8,-0.06 1,0.3 1.12,2.08 2.15,4.16 3.34,6.57l0.26 0.53 9.99 -1.19c0.3,-0.04 0.6,0.12 0.74,0.4l6.68 13.22c0.18,0.37 0.04,0.81 -0.33,0.99z"/>
   <path class="fil2" d="M166.78 23.92c-1.58,0.8 -2.36,2.46 -1.73,3.71l1.47 2.91c0.63,1.24 2.43,1.6 4.01,0.81 1.58,-0.8 2.36,-2.46 1.73,-3.71l-1.47 -2.91c-0.63,-1.25 -2.43,-1.61 -4.01,-0.81zm4.42 8.74c-2.31,1.17 -5,0.51 -5.99,-1.46l-1.47 -2.91c-1,-1.97 0.07,-4.52 2.38,-5.69 2.3,-1.16 4.99,-0.51 5.99,1.46l1.47 2.92c0.99,1.97 -0.08,4.52 -2.38,5.68z"/>
   <path class="fil2" d="M175 24.53l-9.83 4.96c-0.36,0.19 -0.81,0.04 -0.99,-0.32 -0.18,-0.36 -0.04,-0.81 0.33,-0.99l9.83 -4.96c0.36,-0.19 0.8,-0.04 0.99,0.32 0.18,0.37 0.03,0.81 -0.33,0.99z"/>
   <path class="fil3" d="M224.21 70.39c-6.12,3.08 -13.6,0.62 -16.69,-5.5 -0.3,-0.6 -0.56,-1.23 -0.76,-1.86 -0.12,-0.39 0.09,-0.8 0.48,-0.93 0.39,-0.12 0.8,0.09 0.92,0.48 0.18,0.56 0.4,1.12 0.67,1.65 2.72,5.39 9.32,7.56 14.71,4.84 5.39,-2.72 7.56,-9.32 4.84,-14.71 -1.89,-3.74 -5.83,-6.1 -10.02,-6.01 -0.41,0.01 -0.75,-0.31 -0.76,-0.72 -0.01,-0.41 0.32,-0.74 0.72,-0.75 4.77,-0.11 9.23,2.57 11.38,6.82 3.08,6.11 0.62,13.6 -5.49,16.69z"/>
   <path class="fil3" d="M215.69 53.52c-3.19,1.61 -4.47,5.51 -2.86,8.69 1.61,3.19 5.51,4.47 8.7,2.87 3.18,-1.61 4.46,-5.51 2.85,-8.7 -1.6,-3.19 -5.5,-4.47 -8.69,-2.86zm6.5 12.87c-3.91,1.98 -8.7,0.4 -10.68,-3.51 -1.97,-3.91 -0.4,-8.7 3.52,-10.68 3.91,-1.97 8.7,-0.4 10.67,3.52 1.98,3.91 0.4,8.7 -3.51,10.67z"/>
   <path class="fil3" d="M217.83 57.76c-0.84,0.43 -1.18,1.47 -0.76,2.31 0.43,0.85 1.47,1.19 2.31,0.76 0.85,-0.43 1.19,-1.46 0.76,-2.31 -0.43,-0.84 -1.46,-1.18 -2.31,-0.76zm2.22 4.39c-1.57,0.79 -3.5,0.16 -4.29,-1.41 -0.8,-1.58 -0.16,-3.5 1.41,-4.29 1.57,-0.8 3.49,-0.16 4.29,1.41 0.79,1.57 0.16,3.49 -1.41,4.29z"/>
   <path class="fil3" d="M172.19 83.56c0.51,0.39 1.22,0.48 1.83,0.17 0.61,-0.31 0.96,-0.93 0.94,-1.57l-2.77 1.4zm2.49 1.49c-1.57,0.79 -3.49,0.16 -4.28,-1.41 -0.19,-0.37 -0.04,-0.81 0.32,-0.99l4.38 -2.22c0.37,-0.18 0.81,-0.03 0.99,0.33 0.79,1.57 0.16,3.49 -1.41,4.29z"/>
   <path class="fil4" d="M163.82 87.78c2.91,4.91 9.19,6.8 14.36,4.19 5.16,-2.61 7.37,-8.78 5.15,-14.04l-19.51 9.85zm15.02 5.51c-6.12,3.08 -13.6,0.62 -16.69,-5.49 -0.18,-0.37 -0.03,-0.81 0.33,-0.99l20.86 -10.54c0.36,-0.18 0.81,-0.03 0.99,0.33 3.09,6.12 0.62,13.6 -5.49,16.69z"/>
   <path class="fil4" d="M167.83 85.75c1.78,2.72 5.36,3.72 8.33,2.23 2.97,-1.5 4.28,-4.98 3.15,-8.02l-11.48 5.79zm8.99 3.54c-3.91,1.98 -8.7,0.4 -10.67,-3.51 -0.19,-0.36 -0.04,-0.81 0.33,-0.99l12.87 -6.5c0.36,-0.18 0.8,-0.03 0.99,0.33 1.97,3.91 0.4,8.7 -3.52,10.67z"/>
   <path class="fil1" d="M160.05 88.04l25.72 -12.99c-3.77,-6.63 -12.15,-9.21 -19.03,-5.73 -6.88,3.47 -9.78,11.74 -6.69,18.72zm27.06 -12.02l-27.07 13.67c-0.37,0.18 -0.81,0.04 -0.99,-0.32 -3.96,-7.83 -0.8,-17.42 7.03,-21.37 7.82,-3.95 17.41,-0.8 21.36,7.03 0.18,0.37 0.04,0.81 -0.33,0.99z"/>
   <path class="fil1" d="M192.76 67.48c-1.72,0.87 -3.25,1.37 -4.27,1.34 -0.61,-0.01 -1.16,-0.29 -1.59,-0.81 -2.38,-2.84 -0.87,-13.26 -0.85,-13.36 0.06,-0.41 0.43,-0.68 0.84,-0.62 0.4,0.06 0.68,0.44 0.61,0.84 -0.6,3.94 -0.85,10.55 0.53,12.2 0.2,0.24 0.37,0.28 0.5,0.28 2.12,0.05 8.24,-3.34 11.78,-7.63 1.29,-1.57 2.73,-3.89 2.26,-6.04 -1.23,-5.55 -6.82,-15.39 -8.02,-17.47l-3.81 0.25c-0.41,0.02 -0.76,-0.29 -0.78,-0.69 -0.03,-0.41 0.28,-0.76 0.68,-0.78l4.28 -0.28c0.27,-0.02 0.54,0.12 0.68,0.36 0.28,0.48 6.98,11.87 8.4,18.3 0.48,2.16 -0.4,4.68 -2.55,7.29 -2.33,2.82 -5.78,5.35 -8.69,6.82z"/>
   <path class="fil1" d="M158.79 79.49c-0.04,0.02 -0.08,0.04 -0.12,0.05 -0.39,0.12 -0.8,-0.1 -0.92,-0.49 -0.11,-0.37 -2.75,-9.08 2.74,-11.85l25.71 -12.98c0.06,-0.25 0.17,-0.98 -0.06,-2.46 -0.06,-0.4 0.21,-0.78 0.62,-0.84 0.4,-0.06 0.77,0.21 0.84,0.62 0.39,2.55 -0.08,3.44 -0.23,3.65 -0.06,0.09 -0.16,0.17 -0.26,0.22l-25.96 13.11c-4.38,2.21 -2.02,10.02 -1.99,10.1 0.11,0.35 -0.06,0.71 -0.37,0.87z"/>
   <path class="fil1" d="M203.96 67.52l-16.85 8.5c-0.36,0.18 -0.8,0.04 -0.99,-0.32 -0.18,-0.37 -0.03,-0.81 0.33,-0.99l16.84 -8.51c2.79,-1.4 7.21,-8.53 5.79,-14.26 -0.72,-1.24 -8.7,-15.05 -10.63,-17.59 -1.45,-1.9 -6.15,-1.16 -7.84,-0.71 -0.39,0.1 -0.79,-0.13 -0.89,-0.53 -0.11,-0.39 0.13,-0.79 0.52,-0.9 0.72,-0.19 7.08,-1.78 9.38,1.24 2.07,2.73 10.43,17.22 10.78,17.84 0.04,0.06 0.06,0.12 0.08,0.18 1.73,6.62 -3.2,14.37 -6.52,16.05z"/>
   <path class="fil1" d="M210.42 54.55c-0.31,0.16 -0.7,0.08 -0.92,-0.21 -0.25,-0.33 -0.19,-0.79 0.14,-1.03l12.17 -9.25c-7.5,-2.32 -14.34,2.58 -14.41,2.63 -0.33,0.25 -0.79,0.17 -1.03,-0.16 -0.24,-0.32 -0.17,-0.78 0.15,-1.02 0.34,-0.25 8.35,-6.01 17.09,-2.37 0.24,0.11 0.42,0.33 0.45,0.59 0.03,0.26 -0.07,0.52 -0.29,0.68l-13.24 10.07c-0.04,0.03 -0.07,0.05 -0.11,0.07z"/>
   <path class="fil2" d="M181.31 38.02c0.03,-0.02 0.06,-0.03 0.09,-0.04l9.09 -3.12c0.26,-0.27 0.29,-0.7 0.05,-0.99 -0.25,-0.32 -0.73,-0.39 -1.06,-0.13 -0.07,0.06 -0.15,0.1 -0.24,0.13l-8.75 2.79c-0.09,0.03 -0.19,0.04 -0.3,0.03l-10.87 -1.11c-0.41,-0.05 -0.79,0.27 -0.83,0.67 -0.02,0.2 0.04,0.4 0.17,0.55 0.12,0.16 0.3,0.26 0.51,0.28l11.47 1.18c0.2,0.02 0.4,-0.04 0.55,-0.16 0.03,-0.03 0.08,-0.06 0.12,-0.08zm9.89 -1.86c-0.02,0.02 -0.06,0.03 -0.09,0.04l-9.12 3.14c-0.43,0.3 -0.97,0.44 -1.5,0.38l-11.48 -1.18c-0.59,-0.06 -1.12,-0.34 -1.5,-0.81 -0.37,-0.46 -0.55,-1.04 -0.48,-1.63 0.07,-0.76 0.53,-1.42 1.21,-1.76 0.38,-0.19 0.8,-0.27 1.23,-0.23l10.72 1.1 8.49 -2.71c0.98,-0.67 2.3,-0.45 3.01,0.45 0.77,0.97 0.6,2.37 -0.36,3.13 -0.04,0.03 -0.08,0.06 -0.13,0.08z"/>
   <path class="fil1" d="M159.82 69.5c-0.32,0.16 -0.71,0.07 -0.93,-0.22l-3.48 -4.78c-0.12,-0.18 -0.17,-0.4 -0.12,-0.61 0.06,-0.21 0.2,-0.39 0.39,-0.49l20.37 -10.28c0.36,-0.18 0.81,-0.04 0.99,0.33 0.18,0.36 0.04,0.8 -0.33,0.99l-19.6 9.89 2.97 4.08c0.24,0.33 0.17,0.79 -0.16,1.03 -0.03,0.02 -0.07,0.04 -0.1,0.06z"/>
   <path class="fil1" d="M155.55 63.47l17.51 -8.84 -8.71 -17.25 -17.51 8.84 8.71 17.25zm18.84 -7.86l-18.83 9.51c-0.37,0.18 -0.81,0.03 -0.99,-0.33l-9.38 -18.56c-0.18,-0.37 -0.03,-0.81 0.33,-0.99l18.83 -9.51c0.36,-0.18 0.8,-0.03 0.99,0.33l9.37 18.56c0.18,0.37 0.04,0.81 -0.32,0.99z"/>
   <path class="fil1" d="M156.28 45.38l1.8 -0.91 -1.58 -3.12 -1.8 0.9 1.58 3.13zm3.12 0.07l-3.11 1.57c-0.37,0.19 -0.81,0.04 -1,-0.32l-2.24 -4.44c-0.18,-0.36 -0.03,-0.81 0.33,-0.99l3.11 -1.57c0.37,-0.19 0.81,-0.04 0.99,0.32l2.24 4.44c0.19,0.37 0.04,0.81 -0.32,0.99z"/>
   <path class="fil1" d="M207.87 33.98l-2.74 1.38c-1.3,0.66 -4.76,0.66 -5.15,0.66 -0.41,-0.01 -0.74,-0.34 -0.73,-0.75 0,-0.4 0.33,-0.73 0.74,-0.73 1.33,0.01 3.73,-0.12 4.48,-0.49l2.08 -1.05 -2.33 -4.61 -2.08 1.05c-2.29,1.16 -2.37,4.44 -2.37,4.47 0,0.41 -0.34,0.73 -0.74,0.73 -0.41,-0.01 -0.73,-0.34 -0.73,-0.75 0,-0.17 0.08,-4.2 3.18,-5.76l2.7 -1.36c0.36,-0.19 0.84,-0.06 1.03,0.3l2.98 5.92c0.19,0.36 0.04,0.81 -0.32,0.99z"/>
  </g>
  <g id="_2089452509168">
   <path class="fil5" d="M283 242.04c-2.49,0 -4.52,-2.02 -4.52,-4.51 0,-2.5 2.03,-4.52 4.52,-4.52 2.49,0 4.51,2.02 4.51,4.52 0,2.49 -2.02,4.51 -4.51,4.51zm-13.42 0c-2.49,0 -4.51,-2.02 -4.51,-4.51 0,-2.5 2.02,-4.52 4.51,-4.52 2.49,0 4.51,2.02 4.51,4.52 0,2.49 -2.02,4.51 -4.51,4.51zm-13.41 0c-2.49,0 -4.51,-2.02 -4.51,-4.51 0,-2.5 2.02,-4.52 4.51,-4.52 2.49,0 4.51,2.02 4.51,4.52 0,2.49 -2.02,4.51 -4.51,4.51zm-13.41 0c-2.49,0 -4.52,-2.02 -4.52,-4.51 0,-2.5 2.03,-4.52 4.52,-4.52 2.49,0 4.5,2.02 4.5,4.52 0,2.49 -2.01,4.51 -4.5,4.51zm49.27 13.79l11.84 -23.84c0.4,-0.79 0.35,-1.68 -0.11,-2.44 -0.47,-0.76 -1.25,-1.19 -2.14,-1.19l-75.79 0c-0.89,0 -1.67,0.43 -2.14,1.19 -0.47,0.76 -0.51,1.65 -0.11,2.45l11.84 23.83c1.07,2.16 3.24,3.51 5.66,3.51l45.29 0c2.42,0 4.59,-1.35 5.66,-3.51z"/>
   <path class="fil5" d="M291.19 219.52l0 5.61 -4.54 0 0 -5.88 4.28 0c0.14,0 0.26,0.12 0.26,0.27zm-18.27 -35.22l5.73 0c0.74,0 1.34,0.6 1.34,1.34l0 11.12 -12.61 0 4.27 -11.58c0.2,-0.53 0.71,-0.88 1.27,-0.88zm-10.63 32.54l0 -15.78c0,-0.59 0.48,-1.07 1.08,-1.07l18.98 0c0.59,0 1.07,0.48 1.07,1.07l0 24.07 -21.13 0 0 -8.29zm-23.28 -1.08l18.99 0c0.58,0 1.07,0.49 1.07,1.08l0 8.29 -21.14 0 0 -8.29c0,-0.59 0.49,-1.08 1.08,-1.08zm-3.59 40.07l-11.84 -23.83c-0.4,-0.8 -0.36,-1.69 0.11,-2.45 0.47,-0.76 1.25,-1.19 2.14,-1.19l75.79 0c0.89,0 1.67,0.43 2.14,1.19 0.46,0.76 0.51,1.65 0.11,2.44l-11.84 23.84c-1.07,2.16 -3.24,3.51 -5.66,3.51l-45.29 0c-2.42,0 -4.59,-1.35 -5.66,-3.51zm71.08 -27.98c-1.06,-1.7 -2.88,-2.72 -4.88,-2.72l-7.21 0 0 -5.61c0,-1.93 -1.56,-3.49 -3.48,-3.49l-4.28 0 0 -14.97c0,-2.08 -1.48,-3.81 -3.44,-4.21l0 -11.21c0,-2.51 -2.04,-4.56 -4.56,-4.56l-5.73 0c-1.91,0 -3.63,1.2 -4.29,2.98l-4.68 12.7 -0.58 0c-2.37,0 -4.3,1.93 -4.3,4.3l0 11.62c-0.35,-0.09 -0.7,-0.14 -1.07,-0.14l-18.99 0c-2.37,0 -4.3,1.93 -4.3,4.3l0 8.29 -8.88 0c-2,0 -3.83,1.02 -4.88,2.72 -1.05,1.7 -1.15,3.79 -0.26,5.58l11.84 23.84c1.62,3.26 4.9,5.29 8.55,5.29l45.29 0c3.65,0 6.92,-2.03 8.54,-5.29l11.85 -23.84c0.89,-1.79 0.79,-3.88 -0.26,-5.58z"/>
  </g>
  <g id="_2089452510032">
   <path class="fil1" d="M444.89 189.48c0,-3.09 2.52,-5.61 5.61,-5.61 3.1,0 5.61,2.52 5.61,5.61 0,3.09 -2.51,5.6 -5.61,5.6 -3.09,0 -5.61,-2.51 -5.61,-5.6zm-51.63 0c0,-3.09 2.51,-5.61 5.61,-5.61 3.09,0 5.61,2.52 5.61,5.61 0,3.09 -2.52,5.6 -5.61,5.6 -3.1,0 -5.61,-2.51 -5.61,-5.6zm-7.5 -14.06c2.33,0 12.03,1.15 12.03,-1.54 0,-0.85 -0.69,-1.54 -1.54,-1.54l-10.49 0 0 -2.4 3.74 0c0.85,0 1.54,-0.69 1.54,-1.54 0,-0.85 -0.69,-1.54 -1.54,-1.54l-3.74 0 0 -2.4 10.49 0c0.85,0 1.54,-0.69 1.54,-1.54 0,-0.85 -0.69,-1.54 -1.54,-1.54l-10.49 0 0 -2.4 3.74 0c0.85,0 1.54,-0.69 1.54,-1.54 0,-0.86 -0.69,-1.54 -1.54,-1.54l-3.74 0 0 -6.89 50.3 0 0 38.93 -28.65 0c-0.73,-4.06 -4.28,-7.15 -8.54,-7.15 -4.27,0 -7.81,3.09 -8.55,7.15l-4.56 0 0 -12.52zm21.65 15.6l34.55 0c0.27,1.53 0.95,2.92 1.92,4.06l-38.39 0c0.97,-1.14 1.65,-2.53 1.92,-4.06zm44.55 -31.16l9.91 14.48 0 13.6 -2.83 0c-0.72,-4.06 -4.27,-7.15 -8.54,-7.15 -4.26,0 -7.81,3.09 -8.54,7.15l-2.82 0 0 -28.08 12.82 0zm11.45 31.16c0.85,0 1.54,-0.69 1.54,-1.54l0 -15.62c0,-0.31 -0.1,-0.61 -0.27,-0.87l-10.63 -15.54c-0.29,-0.42 -0.76,-0.67 -1.28,-0.67l-13.63 0 0 -9.31c0,-0.85 -0.69,-1.55 -1.54,-1.55l-53.38 0c-0.85,0 -1.54,0.7 -1.54,1.55l0 8.43 -11.65 0c-0.85,0 -1.54,0.68 -1.54,1.54 0,0.85 0.69,1.54 1.54,1.54l11.65 0 0 2.4 -4.91 0c-0.85,0 -1.54,0.69 -1.54,1.54 0,0.85 0.69,1.54 1.54,1.54l4.91 0 0 2.4 -11.65 0c-0.85,0 -1.54,0.69 -1.54,1.54 0,0.85 0.69,1.54 1.54,1.54l11.65 0 0 2.4 -4.91 0c-0.85,0 -1.54,0.69 -1.54,1.54 0,0.85 0.69,1.54 1.54,1.54l4.91 0 0 14.06c0,0.85 0.69,1.54 1.54,1.54l6.1 0c0.28,1.53 0.96,2.92 1.92,4.06l-21.21 0c-0.85,0 -1.54,0.7 -1.54,1.55 0,0.85 0.69,1.54 1.54,1.54l92.38 0c0.85,0 1.54,-0.69 1.54,-1.54 0,-0.85 -0.69,-1.55 -1.54,-1.55l-6.28 0c0.97,-1.14 1.64,-2.53 1.91,-4.06l4.37 0z"/>
   <path class="fil1" d="M443.94 164.51l5.4 0 4.82 6.82 -10.22 0 0 -6.82zm-1.54 9.9l14.74 0c0.57,0 1.1,-0.32 1.37,-0.83 0.26,-0.52 0.22,-1.13 -0.11,-1.6l-7.01 -9.9c-0.28,-0.4 -0.75,-0.65 -1.25,-0.65l-7.74 0c-0.85,0 -1.54,0.7 -1.54,1.54l0 9.9c0,0.85 0.69,1.54 1.54,1.54z"/>
  </g>
 </g>
</svg>
